<?xml version="1.0" encoding="UTF-8"?>
<svg width="1024px" height="1024px" viewBox="0 0 1024 1024" version="1.1" xmlns="http://www.w3.org/2000/svg" xmlns:xlink="http://www.w3.org/1999/xlink">
    <!-- Generator: Sketch 44.1 (41455) - http://www.bohemiancoding.com/sketch -->
    <title>apple-icon-seed</title>
    <desc>Created with Sketch.</desc>
    <defs>
        <filter x="-1.0%" y="-1.0%" width="103.1%" height="104.2%" filterUnits="objectBoundingBox" id="filter-1">
            <feOffset dx="10" dy="20" in="SourceAlpha" result="shadowOffsetOuter1"></feOffset>
            <feColorMatrix values="0 0 0 0 0.0163424745   0 0 0 0 0.000174103066   0 0 0 0 0.00918094041  0 0 0 0.834692029 0" type="matrix" in="shadowOffsetOuter1" result="shadowMatrixOuter1"></feColorMatrix>
            <feMerge>
                <feMergeNode in="shadowMatrixOuter1"></feMergeNode>
                <feMergeNode in="SourceGraphic"></feMergeNode>
            </feMerge>
        </filter>
        <circle id="path-2" cx="480" cy="480" r="480"></circle>
        <rect id="path-4" x="0" y="0" width="972.997567" height="988.997567"></rect>
        <linearGradient x1="50%" y1="0%" x2="50%" y2="99.3562659%" id="linearGradient-6">
            <stop stop-color="#087BF5" offset="0%"></stop>
            <stop stop-color="#191717" offset="100%"></stop>
        </linearGradient>
        <filter x="-12.0%" y="-68.2%" width="244.1%" height="196.9%" filterUnits="objectBoundingBox" id="filter-7">
            <feGaussianBlur stdDeviation="50" in="SourceGraphic"></feGaussianBlur>
        </filter>
        <linearGradient x1="86.5392492%" y1="8.37599545%" x2="12.0644998%" y2="67.1990543%" id="linearGradient-8">
            <stop stop-color="#B6E5FB" offset="0%"></stop>
            <stop stop-color="#9BB6E3" offset="24.5729537%"></stop>
            <stop stop-color="#3B4DA4" offset="100%"></stop>
        </linearGradient>
        <filter x="-4.2%" y="-6.2%" width="108.5%" height="112.3%" filterUnits="objectBoundingBox" id="filter-9">
            <feGaussianBlur stdDeviation="16.8164062 0" in="SourceGraphic"></feGaussianBlur>
        </filter>
    </defs>
    <g id="assets/icons" stroke="none" stroke-width="1" fill="none" fill-rule="evenodd">
        <g id="apple-icon-seed">
            <g id="Combined-Shape-+-Combined-Shape-+-Group-Mask" filter="url(#filter-1)" transform="translate(32.000000, 32.000000)">
                <mask id="mask-3" fill="white">
                    <use xlink:href="#path-2"></use>
                </mask>
                <g id="Mask"></g>
                <g mask="url(#mask-3)">
                    <g transform="translate(0.000000, -12.115349)">
                        <mask id="mask-5" fill="white">
                            <use xlink:href="#path-4"></use>
                        </mask>
                        <use id="Mask" stroke="none" fill="#D8D8D8" fill-rule="evenodd" xlink:href="#path-4"></use>
                        <path d="M-156.781835,662.307106 C-35.8898695,948.467561 173.510542,1137.66202 411.580918,1137.66202 C785.885842,1137.66202 1089.31994,669.982043 1089.31994,93.0695559 C1089.31994,25.4624964 1085.15289,-40.6444772 1077.19306,-104.674503 C394.958981,-49.0910669 -132.511378,271.101672 -156.781831,662.307114 Z" id="Combined-Shape" stroke="none" fill="url(#linearGradient-6)" fill-rule="evenodd" filter="url(#filter-7)" mask="url(#mask-5)"></path>
                        <path d="M294.920825,666.101921 C241.374846,667.964582 192.527568,687.96902 154.548385,720.051836 C138.540407,716.978462 122.011436,715.369331 105.106436,715.369331 C-38.7901839,715.369331 -155.441443,831.959587 -155.441443,975.780957 C-155.441443,1119.60233 -38.7901839,1236.19258 105.106436,1236.19258 C198.580595,1236.19258 280.558019,1186.99495 326.531769,1113.09381 C345.909028,1111.15303 364.568604,1106.82812 382.201957,1100.42233 C425.960293,1232.68915 551.584912,1328.21645 699.732115,1328.21645 C884.238189,1328.21645 1033.80992,1180.04589 1033.80992,997.268245 C1033.80992,838.285645 920.647412,705.485966 769.763122,673.603205 C732.626844,577.944872 639.645715,510.127657 530.81674,510.127657 C424.854738,510.127657 333.916596,574.418804 294.920846,666.101872 Z" id="Combined-Shape" stroke="none" fill="url(#linearGradient-8)" fill-rule="evenodd" filter="url(#filter-9)" mask="url(#mask-5)"></path>
                        <g id="Group" stroke="none" stroke-width="1" fill="none" fill-rule="evenodd" mask="url(#mask-5)">
                            <g transform="translate(532.571803, 468.677242) rotate(14.000000) translate(-532.571803, -468.677242) translate(158.652921, 344.077958)">
                                <g id="I" transform="translate(0.000000, 41.723556)">
                                    <g>
                                        <path d="M71.4510216,13.8899909 L71.4510216,18.2302687 C68.2058131,19.0440748 65.9522299,20.1969496 64.6902043,21.6889275 C63.4281788,23.1809055 62.7971755,25.2832065 62.7971755,27.9958937 L62.7971755,184.788428 C62.7971755,187.591538 63.4507146,189.73905 64.7578125,191.231028 C66.0649104,192.723006 68.2959578,193.875881 71.4510216,194.689687 L71.4510216,199.029965 L13.8488582,199.029965 L0,185.139974 L0,180.799696 C3.24520853,179.895467 5.49879177,178.719987 6.76081731,177.27322 C8.02284285,175.826454 8.65384615,173.701548 8.65384615,170.898437 L8.65384615,14.1059028 C8.65384615,11.3932156 8.02284285,9.31351997 6.76081731,7.86675347 C5.49879177,6.41998698 3.24520853,5.24450684 0,4.34027778 L0,0 L57.6021635,0 L71.4510216,13.8899909 Z" id="Combined-Shape" fill="#000000"></path>
                                        <path d="M8.65384615,170.898438 L8.65384615,14.1059028 C8.65384615,11.3932156 8.02284285,9.31351997 6.76081731,7.86675347 C5.49879177,6.41998698 3.24520853,5.24450684 0,4.34027778 L0,0 L57.6021635,0 L57.6021635,4.34027778 C54.3569549,5.15408393 52.1033717,6.30695869 50.8413462,7.79893663 C49.5793206,9.29091458 48.9483173,11.3932156 48.9483173,14.1059028 L48.9483173,170.898438 C48.9483173,173.701548 49.6018564,175.849059 50.9089543,177.341037 C52.2160522,178.833015 54.4470996,179.98589 57.6021635,180.799696 L57.6021635,185.139974 L0,185.139974 L0,180.799696 C3.24520853,179.895467 5.49879177,178.719987 6.76081731,177.27322 C8.02284285,175.826454 8.65384615,173.701548 8.65384615,170.898438 Z" stroke="#000000" fill="#FFFFFF"></path>
                                    </g>
                                </g>
                                <g id="R" transform="translate(83.553278, 41.723556)">
                                    <g>
                                        <path d="M13.9070302,199.028863 L71.7758703,199.028863 L71.7758703,194.688585 C68.6061997,193.874779 66.3648233,192.721904 65.0516741,191.229926 C63.7385248,189.737948 63.08196,187.635647 63.08196,184.92296 L63.08196,123.480903 L108.17187,123.480903 L136.114032,164.116753 C140.370447,170.355934 142.498623,174.289271 142.498623,175.916884 C142.498623,178.448725 140.189326,180.076313 135.570663,180.799696 L135.570663,185.139974 L149.477693,199.028863 L216.583813,199.028863 L216.583813,194.688585 C213.746203,194.507739 209.110526,191.324869 202.676783,185.139974 L202.676783,180.799696 C200.392929,180.654142 198.298122,180.176671 196.392344,179.367277 C194.992862,177.494398 193.48225,175.412917 191.860506,173.12283 L155.862284,121.988932 C189.460792,116.834827 206.259795,99.1574137 206.259795,68.9561632 C206.259795,60.0947184 204.584422,51.7759359 201.233628,43.999566 C197.701709,35.9519274 176.623268,14.486709 171.297201,10.9863281 C165.138983,6.91729736 157.916771,4.06901855 149.630346,2.44140625 C141.343921,0.813793945 130.13704,0 116.009365,0 L0,0 L0,4.34027778 C3.26023265,5.24450684 5.52424914,6.41998698 6.79211739,7.86675347 C8.05998564,9.31351997 8.69391026,11.4384264 8.69391026,14.2415365 L8.69391026,171.034071 C8.69391026,173.746758 8.05998564,175.826454 6.79211739,177.27322 C5.52424914,178.719987 3.26023265,179.895467 0,180.799696 L0,185.139974 L13.9070302,199.028863 Z M63.0797526,92.9595947 L125.567233,92.9595947 C134.804558,92.9595947 141.324926,92.6883301 145.128531,92.1457926 C148.932135,91.6032552 152.418721,90.4729858 155.588391,88.7549506 C162.471105,85.0476115 165.91241,78.3564168 165.91241,68.6811659 C165.91241,59.005915 162.471105,52.3147203 155.588391,48.6073812 C152.328159,46.7989231 148.864214,45.6460483 145.196452,45.1487223 C141.52869,44.6513963 134.985682,44.4027371 125.567233,44.4027371 L63.0797526,44.4027371 L63.0797526,92.9595947 Z" id="Combined-Shape" fill="#010101"></path>
                                        <path d="M49.1749299,109.592014 L49.1749299,171.034071 C49.1749299,173.746758 49.8314947,175.849059 51.1446439,177.341037 C52.4577932,178.833015 54.6991695,179.98589 57.8688401,180.799696 L57.8688401,185.139974 L0,185.139974 L0,180.799696 C3.26023265,179.895467 5.52424914,178.719987 6.79211739,177.27322 C8.05998564,175.826454 8.69391026,173.746758 8.69391026,171.034071 L8.69391026,14.2415365 C8.69391026,11.4384264 8.05998564,9.31351997 6.79211739,7.86675347 C5.52424914,6.41998698 3.26023265,5.24450684 0,4.34027778 L0,0 L116.009365,0 C130.13704,0 141.343921,0.813793945 149.630346,2.44140625 C157.916771,4.06901855 165.138983,6.91729736 171.297201,10.9863281 C178.4516,15.6883192 183.794679,22.0630385 187.326598,30.1106771 C190.677392,37.887047 192.352764,46.2058295 192.352764,55.0672743 C192.352764,85.2685248 175.553762,102.945938 141.955253,108.100043 L177.953476,159.233941 C184.292817,168.185809 188.934051,173.950182 191.877316,176.527235 C194.820582,179.104288 198.420368,180.528427 202.676783,180.799696 L202.676783,185.139974 L135.570663,185.139974 L135.570663,180.799696 C140.189326,180.076313 142.498623,178.448725 142.498623,175.916884 C142.498623,174.289271 140.370447,170.355934 136.114032,164.116753 L98.6215445,109.592014 L49.1749299,109.592014 Z M49.1749299,79.0744358 L111.66241,79.0744358 C120.899736,79.0744358 127.420103,78.8031711 131.223708,78.2606337 C135.027313,77.7180962 138.513898,76.5878269 141.683569,74.8697917 C148.566282,71.1624525 152.007587,64.4712579 152.007587,54.7960069 C152.007587,45.120756 148.566282,38.4295614 141.683569,34.7222222 C138.423336,32.9137641 134.959391,31.7608894 131.291629,31.2635634 C127.623867,30.7662374 121.08086,30.5175781 111.66241,30.5175781 L49.1749299,30.5175781 L49.1749299,79.0744358 Z" stroke="#000000" fill="#FFFFFF"></path>
                                    </g>
                                </g>
                                <g id="O" transform="translate(293.829029, 0.000000)">
                                    <g>
                                        <path d="M198.734885,40.5770591 C218.791015,58.8473896 228.818929,82.4537496 228.818929,111.396847 C228.818929,129.124495 224.00916,145.67608 214.389478,161.052101 C195.603873,191.080565 164.794127,206.094572 121.959317,206.094572 C89.8332097,206.094572 64.2869847,197.36655 45.319876,179.910244 C41.923663,176.797422 38.8010292,173.477607 35.9519661,169.950789 C34.386393,168.691141 32.8611451,167.377995 31.3762221,166.011352 C21.2120298,156.695292 13.4982497,145.525233 8.23465011,132.500839 C3.60631258,121.014047 1.29217852,108.93953 1.29217852,96.2769243 C1.29217852,77.7352523 6.05657217,60.7766604 15.5855024,45.4006397 C33.8265974,16.005306 64.5455926,1.03652222 107.74341,0.493839136 C140.141772,0.493839136 165.824123,9.22186112 184.791232,26.6781669 C188.373325,29.941311 191.635527,33.3746702 194.577839,36.9782484 C195.997624,38.1335355 197.383304,39.3331368 198.734885,40.5770591 Z M121.812641,45.7205667 C104.116056,45.7205667 89.3691232,50.9664245 77.5714,61.4582974 C63.5956357,73.8495611 56.6078584,90.0845865 56.6078584,110.163861 C56.6078584,130.243135 63.5956357,146.47816 77.5714,158.869424 C89.3691232,169.361297 104.206806,174.607154 122.084894,174.607154 C139.962982,174.607154 154.75529,169.361297 166.462262,158.869424 C173.450144,152.628568 178.804415,144.985896 182.525235,135.941178 C185.792297,127.891379 187.425803,119.570363 187.425803,110.977881 C187.425803,89.9941352 180.438026,73.4877724 166.462262,61.4582974 C154.573787,51.1473189 139.690729,45.9014611 121.812641,45.7205667 Z" id="Combined-Shape" fill="#000000"></path>
                                        <path d="M107.74341,0.493839136 C140.141772,0.493839136 165.824123,9.22186112 184.791232,26.6781669 C204.847361,44.9484974 214.875275,68.5548574 214.875275,97.4979551 C214.875275,115.225602 210.065506,131.777188 200.445824,147.153209 C181.660219,177.181673 150.850474,192.19568 108.015663,192.19568 C75.8895558,192.19568 50.3433308,183.467658 31.3762221,166.011352 C21.2120298,156.695292 13.4982497,145.525233 8.23465011,132.500839 C3.60631258,121.014047 1.29217852,108.93953 1.29217852,96.2769243 C1.29217852,77.7352523 6.05657217,60.7766604 15.5855024,45.4006397 C33.8265974,16.005306 64.5455926,1.03652222 107.74341,0.493839136 Z M107.879536,31.8336305 C90.1829518,31.8336305 75.4360191,37.0794882 63.6382959,47.5713612 C49.6625316,59.9626249 42.6747543,76.1976502 42.6747543,96.2769243 C42.6747543,116.356198 49.6625316,132.591224 63.6382959,144.982487 C75.4360191,155.47436 90.2737021,160.720218 108.15179,160.720218 C126.029878,160.720218 140.822186,155.47436 152.529158,144.982487 C159.51704,138.741632 164.871311,131.09896 168.592131,122.054242 C171.859193,114.004443 173.492699,105.683427 173.492699,97.0909448 C173.492699,76.107199 166.504922,59.6008362 152.529158,47.5713612 C140.640683,37.2603826 125.757625,32.0145248 107.879536,31.8336305 Z" stroke="#000000" fill="#FFFFFF"></path>
                                    </g>
                                </g>
                                <g id="N" transform="translate(523.600544, 48.677482)">
                                    <g id="O">
                                        <path d="M59.701087,72.6652568 L59.701087,184.787326 C59.701087,187.590436 60.3351386,189.715343 61.6032609,191.162109 C62.8713832,192.608876 65.1358533,193.784356 68.3967391,194.688585 L68.3967391,199.028863 L13.9130435,199.028863 L0,185.139974 L0,180.799696 C3.26088587,179.895467 5.52535598,178.719987 6.79347826,177.27322 C8.06160054,175.826454 8.69565217,173.701548 8.69565217,170.898438 L8.69565217,14.1059028 C8.69565217,11.3932156 8.06160054,9.31351997 6.79347826,7.86675347 C5.52535598,6.41998698 3.26088587,5.24450684 0,4.34027778 L0,0 L63.0434783,0 L76.9565217,13.8888889 L76.9565217,18.2291667 C73.0615747,19.2238186 71.1141304,21.3035143 71.1141304,24.468316 C71.1141304,26.6384657 72.3822337,29.0346368 74.9184783,31.656901 L163.315217,123.415842 L163.315217,14.1059028 C163.315217,11.3932156 162.681166,9.31351997 161.413043,7.86675347 C160.144921,6.41998698 157.880451,5.24450684 154.619565,4.34027778 L154.619565,0 L209.103261,0 L223.016304,13.8888889 L223.016304,18.2291667 C219.755418,19.1333957 217.490948,20.3088759 216.222826,21.7556424 C214.954704,23.2024089 214.320652,25.2821045 214.320652,27.9947917 L214.320652,184.787326 C214.320652,187.590436 214.954704,189.715343 216.222826,191.162109 C217.490948,192.608876 219.755418,193.784356 223.016304,194.688585 L223.016304,199.028863 L164.592391,199.028863 L150.679348,185.139974 L150.679348,180.799696 C154.483715,179.98589 156.38587,178.041827 156.38587,174.967448 C156.38587,173.15899 154.166689,169.994236 149.728261,165.47309 L59.701087,72.6652568 Z" id="Combined-Shape" fill="#000000"></path>
                                        <path d="M45.7880435,58.3224826 L45.7880435,170.898438 C45.7880435,173.701548 46.4220951,175.826454 47.6902174,177.27322 C48.9583397,178.719987 51.2228098,179.895467 54.4836957,180.799696 L54.4836957,185.139974 L0,185.139974 L0,180.799696 C3.26088587,179.895467 5.52535598,178.719987 6.79347826,177.27322 C8.06160054,175.826454 8.69565217,173.701548 8.69565217,170.898438 L8.69565217,14.1059028 C8.69565217,11.3932156 8.06160054,9.31351997 6.79347826,7.86675347 C5.52535598,6.41998698 3.26088587,5.24450684 0,4.34027778 L0,0 L63.0434783,0 L63.0434783,4.34027778 C59.1485313,5.33492974 57.201087,7.41462538 57.201087,10.5794271 C57.201087,12.7495768 58.4691902,15.1457479 61.0054348,17.7680122 L163.315217,123.969184 L163.315217,14.1059028 C163.315217,11.3932156 162.681166,9.31351997 161.413043,7.86675347 C160.144921,6.41998698 157.880451,5.24450684 154.619565,4.34027778 L154.619565,0 L209.103261,0 L209.103261,4.34027778 C205.842375,5.24450684 203.577905,6.41998698 202.309783,7.86675347 C201.04166,9.31351997 200.407609,11.3932156 200.407609,14.1059028 L200.407609,170.898438 C200.407609,173.701548 201.04166,175.826454 202.309783,177.27322 C203.577905,178.719987 205.842375,179.895467 209.103261,180.799696 L209.103261,185.139974 L150.679348,185.139974 L150.679348,180.799696 C154.483715,179.98589 156.38587,178.041827 156.38587,174.967448 C156.38587,173.15899 154.166689,169.994236 149.728261,165.47309 L45.7880435,58.3224826 Z" id="N" stroke="#000000" fill="#FFFFFF"></path>
                                    </g>
                                </g>
                            </g>
                        </g>
                    </g>
                </g>
            </g>
        </g>
    </g>
</svg>